<?xml version="1.0" standalone="no"?>
<!DOCTYPE svg PUBLIC "-//W3C//DTD SVG 20010904//EN"
 "http://www.w3.org/TR/2001/REC-SVG-20010904/DTD/svg10.dtd">
<svg version="1.0" xmlns="http://www.w3.org/2000/svg"
 width="260.000000pt" height="260.000000pt" viewBox="0 0 260.000000 260.000000"
 preserveAspectRatio="xMidYMid meet">
<metadata>
Created by potrace 1.11, written by Peter Selinger 2001-2013
</metadata>
<g transform="translate(0.000000,260.000000) scale(0.100000,-0.100000)"
fill="#000000" stroke="none">
<path d="M0 1300 l0 -1300 1300 0 1300 0 0 1300 0 1300 -1300 0 -1300 0 0
-1300z m576 518 l59 -183 3 183 2 182 25 0 25 0 0 -261 0 -260 -32 3 -32 3
-62 190 -62 190 -1 -192 -1 -193 -30 0 -30 0 0 253 c0 140 3 257 7 260 3 4 21
7 38 7 l31 0 60 -182z m384 152 l0 -30 -75 0 -75 0 0 -85 0 -85 60 0 c57 0 60
-1 60 -25 0 -24 -3 -25 -60 -25 l-60 0 0 -95 0 -95 75 0 c73 0 75 -1 75 -25
l0 -25 -105 0 -105 0 0 260 0 260 105 0 105 0 0 -30z m280 0 c0 -29 -1 -30
-50 -30 l-50 0 0 -230 0 -230 -25 0 -25 0 0 230 0 230 -50 0 c-49 0 -50 1 -50
30 l0 30 125 0 125 0 0 -30z m240 0 l0 -30 -70 0 -70 0 0 -90 0 -90 55 0 c54
0 55 0 55 -30 0 -30 -1 -30 -55 -30 l-55 0 0 -110 0 -110 -30 0 -30 0 0 260 0
260 100 0 100 0 0 -30z m108 -207 l2 -233 70 0 c68 0 70 -1 70 -25 l0 -25
-100 0 -100 0 0 261 0 260 28 -3 27 -3 3 -232z m250 107 c2 -69 0 -185 -3
-257 -7 -132 -7 -133 -31 -133 l-24 0 0 261 0 260 28 -3 27 -3 3 -125z m145
31 c21 -52 39 -96 41 -98 2 -2 21 40 43 94 35 89 42 98 67 101 21 3 27 0 23
-10 -41 -103 -90 -235 -90 -243 0 -5 21 -63 47 -128 25 -65 46 -123 46 -128 0
-5 -12 -9 -28 -9 -26 0 -30 7 -67 105 -22 58 -42 105 -45 105 -3 0 -23 -47
-45 -105 -37 -100 -41 -105 -68 -105 -19 0 -27 4 -24 13 37 89 97 247 97 254
0 4 -20 59 -45 122 -25 63 -45 118 -45 123 0 5 12 8 28 6 24 -3 31 -13 65 -97z
m-1580 -642 c44 -12 63 -38 71 -99 8 -58 -7 -120 -35 -142 l-21 -18 21 -17
c27 -22 40 -77 41 -166 l0 -68 -27 3 c-27 3 -28 5 -31 73 -4 121 -18 145 -83
145 l-39 0 0 -110 0 -110 -30 0 -30 0 0 253 c0 140 3 257 7 260 10 11 114 8
156 -4z m314 -9 c44 -27 53 -68 52 -245 0 -165 -9 -207 -51 -238 -31 -23 -97
-26 -133 -7 -47 25 -55 63 -55 250 0 183 6 212 52 244 31 22 96 20 135 -4z
m154 -177 c0 -230 8 -267 54 -271 59 -5 60 -4 65 240 l5 223 28 3 28 3 -3
-228 c-2 -179 -6 -233 -18 -250 -45 -68 -173 -60 -200 13 -6 14 -10 124 -10
245 l0 219 25 0 25 0 1 -197z m289 -38 l0 -235 75 0 c73 0 75 -1 75 -25 l0
-25 -105 0 -105 0 0 253 c0 140 3 257 7 260 3 4 17 7 30 7 l23 0 0 -235z m405
205 c0 -24 -2 -25 -77 -28 l-78 -3 0 -84 0 -85 65 0 c62 0 65 -1 65 -25 0 -23
-4 -24 -62 -27 l-63 -3 -3 -92 -3 -93 81 0 c79 0 80 0 80 -25 l0 -25 -110 0
-110 0 0 253 c0 140 3 257 7 261 4 4 52 5 107 4 100 -3 101 -3 101 -28z m280
0 c0 -23 -4 -25 -47 -28 l-48 -3 0 -230 0 -229 -30 0 -30 0 0 230 0 230 -45 0
c-43 0 -45 1 -45 30 l0 31 123 -3 122 -3 0 -25z m265 0 c0 -29 -2 -30 -45 -30
l-45 0 0 -230 0 -230 -30 0 -30 0 0 230 0 230 -45 0 c-47 0 -63 14 -51 45 4
12 28 15 126 15 l120 0 0 -30z m250 0 l0 -30 -75 0 -75 0 0 -85 0 -85 60 0
c57 0 60 -1 60 -25 0 -24 -3 -25 -60 -25 l-60 0 0 -95 0 -95 75 0 c73 0 75 -1
75 -25 l0 -25 -105 0 -105 0 0 260 0 260 105 0 105 0 0 -30z"/>
<path d="M300 1114 l0 -97 42 6 c61 8 81 37 76 104 -6 68 -20 83 -74 83 l-44
0 0 -96z"/>
<path d="M610 1200 c-18 -18 -20 -33 -20 -193 0 -156 2 -176 18 -190 27 -25
69 -21 87 7 14 21 16 52 13 196 -3 156 -5 173 -22 186 -27 19 -52 18 -76 -6z"/>
</g>
</svg>
